<?xml version="1.0" encoding="UTF-8"?>
<svg xmlns="http://www.w3.org/2000/svg" xmlns:xlink="http://www.w3.org/1999/xlink" width="512px" height="512px" viewBox="0 0 512 512" version="1.1">
<g id="surface1">
<path style="fill-rule:nonzero;fill:rgb(100%,100%,100%);fill-opacity:1;stroke-width:1;stroke-linecap:butt;stroke-linejoin:miter;stroke:rgb(100%,100%,100%);stroke-opacity:1;stroke-miterlimit:4;" d="M 266.601562 239.703125 C 252.796875 239.703125 245.898438 229.898438 240.898438 222.703125 C 235.796875 215.398438 233.203125 212.5 228.203125 212.5 C 223.203125 212.5 220.703125 215.5 215.5 222.703125 C 210.398438 229.898438 203.5 239.703125 189.796875 239.703125 C 176 239.703125 169.101562 229.898438 164.101562 222.703125 C 159 215.398438 156.398438 212.5 151.398438 212.5 C 146.398438 212.5 143.898438 215.5 138.703125 222.703125 C 133.601562 229.898438 126.703125 239.703125 113 239.703125 C 99.296875 239.703125 92.296875 229.898438 87.296875 222.703125 C 82.203125 215.398438 79.601562 212.5 74.601562 212.5 C 70.203125 212.5 66.601562 208.898438 66.601562 204.5 C 66.601562 200.101562 70.203125 196.5 74.601562 196.5 C 88.398438 196.5 95.296875 206.296875 100.296875 213.5 C 105.398438 220.796875 108 223.703125 113 223.703125 C 118 223.703125 120.5 220.703125 125.703125 213.5 C 130.796875 206.296875 137.703125 196.5 151.398438 196.5 C 165.101562 196.5 172.101562 206.296875 177.101562 213.5 C 182.203125 220.796875 184.796875 223.703125 189.796875 223.703125 C 194.796875 223.703125 197.296875 220.703125 202.5 213.5 C 207.601562 206.296875 214.5 196.5 228.203125 196.5 C 241.898438 196.5 248.898438 206.296875 253.898438 213.5 C 259 220.796875 261.601562 223.703125 266.601562 223.703125 C 271 223.703125 274.601562 227.296875 274.601562 231.703125 C 274.601562 236.101562 271 239.703125 266.601562 239.703125 Z M 266.601562 289.703125 C 252.796875 289.703125 245.898438 279.898438 240.898438 272.703125 C 235.796875 265.398438 233.203125 262.5 228.203125 262.5 C 223.203125 262.5 220.703125 265.5 215.5 272.703125 C 210.398438 279.898438 203.5 289.703125 189.796875 289.703125 C 176 289.703125 169.101562 279.898438 164.101562 272.703125 C 159 265.398438 156.398438 262.5 151.398438 262.5 C 146.398438 262.5 143.898438 265.5 138.703125 272.703125 C 133.601562 279.898438 126.703125 289.703125 113 289.703125 C 99.296875 289.703125 92.296875 279.898438 87.296875 272.703125 C 82.203125 265.398438 79.601562 262.5 74.601562 262.5 C 70.203125 262.5 66.601562 258.898438 66.601562 254.5 C 66.601562 250.101562 70.203125 246.5 74.601562 246.5 C 88.398438 246.5 95.296875 256.296875 100.296875 263.5 C 105.398438 270.796875 108 273.703125 113 273.703125 C 118 273.703125 120.5 270.703125 125.703125 263.5 C 130.796875 256.296875 137.703125 246.5 151.398438 246.5 C 165.101562 246.5 172.101562 256.296875 177.101562 263.5 C 182.203125 270.796875 184.796875 273.703125 189.796875 273.703125 C 194.796875 273.703125 197.296875 270.703125 202.5 263.5 C 207.601562 256.296875 214.5 246.5 228.203125 246.5 C 241.898438 246.5 248.898438 256.296875 253.898438 263.5 C 259 270.796875 261.601562 273.703125 266.601562 273.703125 C 271 273.703125 274.601562 277.296875 274.601562 281.703125 C 274.601562 286.101562 271 289.703125 266.601562 289.703125 Z M 954.601562 700.703125 C 940.796875 700.703125 933.898438 690.898438 928.898438 683.703125 C 923.796875 676.398438 921.203125 673.5 916.203125 673.5 C 911.203125 673.5 908.703125 676.5 903.5 683.703125 C 898.398438 690.898438 891.5 700.703125 877.796875 700.703125 C 864 700.703125 857.101562 690.898438 852.101562 683.703125 C 847 676.398438 844.398438 673.5 839.398438 673.5 C 834.398438 673.5 831.898438 676.5 826.703125 683.703125 C 821.601562 690.898438 814.703125 700.703125 801 700.703125 C 787.296875 700.703125 780.296875 690.898438 775.296875 683.703125 C 770.203125 676.398438 767.601562 673.5 762.601562 673.5 C 758.203125 673.5 754.601562 669.898438 754.601562 665.5 C 754.601562 661.101562 758.203125 657.5 762.601562 657.5 C 776.398438 657.5 783.296875 667.296875 788.296875 674.5 C 793.398438 681.796875 796 684.703125 801 684.703125 C 806 684.703125 808.5 681.703125 813.703125 674.5 C 818.796875 667.296875 825.703125 657.5 839.398438 657.5 C 853.101562 657.5 860.101562 667.296875 865.101562 674.5 C 870.203125 681.796875 872.796875 684.703125 877.796875 684.703125 C 882.796875 684.703125 885.296875 681.703125 890.5 674.5 C 895.601562 667.296875 902.5 657.5 916.203125 657.5 C 929.898438 657.5 936.898438 667.296875 941.898438 674.5 C 947 681.796875 949.601562 684.703125 954.601562 684.703125 C 959 684.703125 962.601562 688.296875 962.601562 692.703125 C 962.601562 697.101562 959 700.703125 954.601562 700.703125 Z M 954.601562 750.703125 C 940.796875 750.703125 933.898438 740.898438 928.898438 733.703125 C 923.796875 726.398438 921.203125 723.5 916.203125 723.5 C 911.203125 723.5 908.703125 726.5 903.5 733.703125 C 898.398438 740.898438 891.5 750.703125 877.796875 750.703125 C 864 750.703125 857.101562 740.898438 852.101562 733.703125 C 847 726.398438 844.398438 723.5 839.398438 723.5 C 834.398438 723.5 831.898438 726.5 826.703125 733.703125 C 821.601562 740.898438 814.703125 750.703125 801 750.703125 C 787.296875 750.703125 780.296875 740.898438 775.296875 733.703125 C 770.203125 726.398438 767.601562 723.5 762.601562 723.5 C 758.203125 723.5 754.601562 719.898438 754.601562 715.5 C 754.601562 711.101562 758.203125 707.5 762.601562 707.5 C 776.398438 707.5 783.296875 717.296875 788.296875 724.5 C 793.398438 731.796875 796 734.703125 801 734.703125 C 806 734.703125 808.5 731.703125 813.703125 724.5 C 818.796875 717.296875 825.703125 707.5 839.398438 707.5 C 853.101562 707.5 860.101562 717.296875 865.101562 724.5 C 870.203125 731.796875 872.796875 734.703125 877.796875 734.703125 C 882.796875 734.703125 885.296875 731.703125 890.5 724.5 C 895.601562 717.296875 902.5 707.5 916.203125 707.5 C 929.898438 707.5 936.898438 717.296875 941.898438 724.5 C 947 731.796875 949.601562 734.703125 954.601562 734.703125 C 959 734.703125 962.601562 738.296875 962.601562 742.703125 C 962.601562 747.101562 959 750.703125 954.601562 750.703125 Z M 954.601562 750.703125 " transform="matrix(0.5,0,0,0.5,0,0)"/>
<path style="fill-rule:nonzero;fill:rgb(100%,100%,100%);fill-opacity:1;stroke-width:1;stroke-linecap:butt;stroke-linejoin:miter;stroke:rgb(100%,100%,100%);stroke-opacity:1;stroke-miterlimit:4;" d="M 317.601562 106.101562 C 317.601562 123.773438 331.929688 138.101562 349.601562 138.101562 C 367.273438 138.101562 381.601562 123.773438 381.601562 106.101562 C 381.601562 88.429688 367.273438 74.101562 349.601562 74.101562 C 331.929688 74.101562 317.601562 88.429688 317.601562 106.101562 Z M 317.601562 106.101562 " transform="matrix(0.5,0,0,0.5,0,0)"/>
<path style="fill-rule:nonzero;fill:rgb(100%,100%,100%);fill-opacity:1;stroke-width:1;stroke-linecap:butt;stroke-linejoin:miter;stroke:rgb(100%,100%,100%);stroke-opacity:1;stroke-miterlimit:4;" d="M 349.601562 146.101562 C 327.5 146.101562 309.601562 128.203125 309.601562 106.101562 C 309.601562 84 327.5 66.101562 349.601562 66.101562 C 371.703125 66.101562 389.601562 84 389.601562 106.101562 C 389.601562 128.203125 371.703125 146.101562 349.601562 146.101562 Z M 349.601562 82.101562 C 336.398438 82.101562 325.601562 92.898438 325.601562 106.101562 C 325.601562 119.296875 336.398438 130.101562 349.601562 130.101562 C 362.796875 130.101562 373.601562 119.296875 373.601562 106.101562 C 373.601562 92.898438 362.796875 82.101562 349.601562 82.101562 Z M 349.601562 82.101562 " transform="matrix(0.5,0,0,0.5,0,0)"/>
<path style="fill-rule:nonzero;fill:rgb(100%,100%,100%);fill-opacity:1;stroke-width:1;stroke-linecap:butt;stroke-linejoin:miter;stroke:rgb(100%,100%,100%);stroke-opacity:1;stroke-miterlimit:4;" d="M 577.5 594.101562 L 172.5 594.101562 L 172.5 650.101562 L 684.5 650.101562 L 684.5 594.101562 Z M 577.5 594.101562 " transform="matrix(0.5,0,0,0.5,0,0)"/>
<path style="fill-rule:nonzero;fill:rgb(100%,100%,100%);fill-opacity:1;stroke-width:1;stroke-linecap:butt;stroke-linejoin:miter;stroke:rgb(100%,100%,100%);stroke-opacity:1;stroke-miterlimit:4;" d="M 172.5 505.101562 L 684.5 505.101562 L 684.5 561.101562 L 172.5 561.101562 Z M 172.5 505.101562 " transform="matrix(0.5,0,0,0.5,0,0)"/>
<path style="fill-rule:nonzero;fill:rgb(100%,100%,100%);fill-opacity:1;stroke-width:1;stroke-linecap:butt;stroke-linejoin:miter;stroke:rgb(100%,100%,100%);stroke-opacity:1;stroke-miterlimit:4;" d="M 716.5 767.101562 L 140.5 767.101562 L 172.5 713.101562 L 684.5 713.101562 Z M 716.5 767.101562 " transform="matrix(0.5,0,0,0.5,0,0)"/>
<path style="fill-rule:nonzero;fill:rgb(100%,100%,100%);fill-opacity:1;stroke-width:1;stroke-linecap:butt;stroke-linejoin:miter;stroke:rgb(100%,100%,100%);stroke-opacity:1;stroke-miterlimit:4;" d="M 579.5 161 L 556.898438 138.398438 L 575.296875 120 C 581.5 113.796875 591.703125 113.796875 597.898438 120 C 604.101562 126.203125 604.101562 136.398438 597.898438 142.601562 Z M 579.5 161 " transform="matrix(0.5,0,0,0.5,0,0)"/>
<path style="fill-rule:nonzero;fill:rgb(100%,100%,100%);fill-opacity:1;stroke-width:1;stroke-linecap:butt;stroke-linejoin:miter;stroke:rgb(100%,100%,100%);stroke-opacity:1;stroke-miterlimit:4;" d="M 567.796875 150.101562 C 536.601562 118.898438 485.898438 118.898438 454.703125 150.101562 L 567.796875 263.203125 C 599 232 599 181.398438 567.796875 150.101562 Z M 567.796875 150.101562 " transform="matrix(0.5,0,0,0.5,0,0)"/>
<path style="fill-rule:nonzero;fill:rgb(100%,100%,100%);fill-opacity:1;stroke-width:1;stroke-linecap:butt;stroke-linejoin:miter;stroke:rgb(100%,100%,100%);stroke-opacity:1;stroke-miterlimit:4;" d="M 926.5 914.101562 L 745.601562 914.101562 L 745.101562 155.398438 C 745.101562 152.398438 743.398438 149.601562 740.703125 148.203125 L 623.898438 90.101562 C 620.203125 88.203125 615.703125 89.601562 613.5 93.101562 L 596.796875 109.796875 C 587.898438 105.601562 576.898438 107.101562 569.5 114.5 L 554 130 C 520.5 111.296875 477.296875 116.203125 448.898438 144.601562 C 447.398438 146.101562 446.601562 148.101562 446.601562 150.296875 C 446.601562 152.5 447.398438 154.5 448.898438 156 L 562 269.101562 C 563.5 270.601562 565.5 271.398438 567.703125 271.398438 C 569.898438 271.398438 571.898438 270.601562 573.398438 269.101562 C 601.796875 240.703125 606.703125 197.5 588 164 L 603.5 148.5 C 608 144 610.5 138 610.5 131.5 C 610.5 127.898438 609.703125 124.296875 608.203125 121.203125 L 622.101562 107.296875 L 729.101562 160.601562 L 729.601562 914.296875 L 632.5 914.296875 L 632.5 775.296875 L 716.5 775.296875 C 719.398438 775.296875 722 773.796875 723.5 771.296875 C 724.898438 768.796875 724.898438 765.703125 723.398438 763.296875 L 691.398438 709.296875 C 690 706.898438 687.296875 705.398438 684.5 705.398438 L 577.5 705.398438 L 577.5 658.398438 L 684.5 658.398438 C 688.898438 658.398438 692.5 654.796875 692.5 650.398438 L 692.5 594.398438 C 692.5 590 688.898438 586.398438 684.5 586.398438 L 577.5 586.398438 L 577.5 569.398438 L 684.5 569.398438 C 688.898438 569.398438 692.5 565.796875 692.5 561.398438 L 692.5 505.398438 C 692.5 501 688.898438 497.398438 684.5 497.398438 L 172.5 497.398438 C 168.101562 497.398438 164.5 501 164.5 505.398438 L 164.5 561.398438 C 164.5 565.796875 168.101562 569.398438 172.5 569.398438 L 280.5 569.398438 L 280.5 586.398438 L 172.5 586.398438 C 168.101562 586.398438 164.5 590 164.5 594.398438 L 164.5 650.398438 C 164.5 654.796875 168.101562 658.398438 172.5 658.398438 L 280.5 658.398438 L 280.5 705.398438 L 172.5 705.398438 C 169.703125 705.398438 167.101562 706.898438 165.601562 709.296875 L 133.601562 763.296875 C 132.101562 765.796875 132.101562 768.796875 133.5 771.296875 C 134.898438 773.796875 137.601562 775.296875 140.5 775.296875 L 224.5 775.296875 L 224.5 914.296875 L 102.5 914.296875 C 98.101562 914.296875 94.5 917.898438 94.5 922.296875 C 94.5 926.703125 98.101562 930.296875 102.5 930.296875 L 926.5 930.296875 C 930.898438 930.296875 934.5 926.703125 934.5 922.296875 C 934.5 917.898438 931 914.101562 926.5 914.101562 Z M 567.398438 251.601562 L 466.203125 150.398438 C 494.398438 127.796875 535.898438 129.601562 562.101562 155.703125 C 588.296875 181.898438 590 223.398438 567.398438 251.601562 Z M 592.203125 137 L 579.5 149.703125 L 568.203125 138.398438 L 580.898438 125.703125 C 584 122.601562 589.101562 122.601562 592.203125 125.703125 C 593.703125 127.203125 594.5 129.203125 594.5 131.398438 C 594.5 133.5 593.703125 135.5 592.203125 137 Z M 180.5 553.101562 L 180.5 513.101562 L 676.5 513.101562 L 676.5 553.101562 Z M 561.5 569.101562 L 561.5 586.101562 L 296.5 586.101562 L 296.5 569.101562 Z M 180.5 642.101562 L 180.5 602.101562 L 676.5 602.101562 L 676.5 642.101562 Z M 561.5 658.101562 L 561.5 705.101562 L 296.5 705.101562 L 296.5 658.101562 Z M 154.601562 759.101562 L 177.101562 721.101562 L 680 721.101562 L 702.5 759.101562 Z M 240.5 775.101562 L 616.5 775.101562 L 616.5 914.101562 L 240.5 914.101562 Z M 240.5 775.101562 " transform="matrix(0.5,0,0,0.5,0,0)"/>
<path style="fill-rule:nonzero;fill:rgb(100%,100%,100%);fill-opacity:1;stroke-width:1;stroke-linecap:butt;stroke-linejoin:miter;stroke:rgb(100%,100%,100%);stroke-opacity:1;stroke-miterlimit:4;" d="M 466.203125 150.398438 L 498.101562 182.296875 C 516 169.703125 530 156.398438 530 137.203125 C 508.398438 131.398438 484.601562 135.796875 466.203125 150.398438 Z M 327.898438 732.203125 C 345.898438 732.703125 363 745.898438 393.101562 741.101562 C 404.601562 739.203125 417.296875 728.398438 448.296875 730.398438 C 470.296875 731.796875 498.296875 729.898438 516.601562 721.101562 L 305.203125 721.101562 C 305.296875 730.703125 318.898438 732 327.898438 732.203125 Z M 198.5 721.101562 L 177.101562 721.101562 L 163.796875 743.601562 C 177.898438 741.101562 190.898438 734.601562 198.5 721.101562 Z M 680 721.101562 C 680 721.101562 681 737.703125 657.703125 736.703125 C 634.398438 735.703125 628.203125 731.601562 606.296875 731.601562 C 586.101562 731.601562 576.796875 721 576.796875 721 L 680 721 Z M 680 721.101562 " transform="matrix(0.5,0,0,0.5,0,0)"/>
</g>
</svg>
