<?xml version="1.0" encoding="UTF-8"?>
<svg xmlns="http://www.w3.org/2000/svg" xmlns:xlink="http://www.w3.org/1999/xlink" width="32px" height="32px" viewBox="0 0 32 32" version="1.1">
<g id="surface1">
<path style=" stroke:none;fill-rule:nonzero;fill:rgb(100%,100%,100%);fill-opacity:1;" d="M 27.988281 13.332031 L 25.894531 13.332031 C 25.328125 13.320312 24.824219 12.964844 24.625 12.433594 L 24.617188 12.417969 C 24.386719 11.902344 24.492188 11.296875 24.886719 10.890625 L 26.367188 9.410156 C 26.890625 8.882812 26.890625 8.03125 26.367188 7.503906 L 24.5 5.636719 C 23.972656 5.113281 23.121094 5.113281 22.59375 5.636719 L 21.113281 7.117188 C 20.707031 7.511719 20.101562 7.617188 19.585938 7.386719 L 19.570312 7.386719 C 19.035156 7.1875 18.675781 6.675781 18.667969 6.105469 L 18.667969 4.011719 C 18.667969 3.269531 18.0625 2.667969 17.320312 2.667969 L 14.679688 2.667969 C 13.9375 2.667969 13.332031 3.269531 13.332031 4.011719 L 13.332031 6.105469 C 13.320312 6.671875 12.964844 7.175781 12.433594 7.375 L 12.417969 7.375 C 11.902344 7.605469 11.296875 7.5 10.890625 7.109375 L 9.410156 5.628906 C 8.882812 5.101562 8.03125 5.101562 7.503906 5.628906 L 5.636719 7.496094 C 5.113281 8.019531 5.113281 8.871094 5.636719 9.398438 L 7.117188 10.878906 C 7.511719 11.285156 7.617188 11.890625 7.386719 12.40625 L 7.386719 12.425781 C 7.1875 12.960938 6.679688 13.324219 6.105469 13.332031 L 4.011719 13.332031 C 3.269531 13.332031 2.667969 13.9375 2.667969 14.679688 L 2.667969 17.320312 C 2.667969 18.0625 3.269531 18.667969 4.011719 18.667969 L 6.105469 18.667969 C 6.671875 18.679688 7.175781 19.035156 7.375 19.566406 L 7.375 19.582031 C 7.605469 20.097656 7.5 20.703125 7.109375 21.109375 L 5.628906 22.589844 C 5.101562 23.117188 5.101562 23.96875 5.628906 24.496094 L 7.496094 26.363281 C 8.019531 26.886719 8.871094 26.886719 9.398438 26.363281 L 10.878906 24.882812 C 11.285156 24.488281 11.890625 24.382812 12.40625 24.613281 L 12.425781 24.621094 C 12.960938 24.816406 13.320312 25.324219 13.332031 25.894531 L 13.332031 27.988281 C 13.332031 28.730469 13.9375 29.332031 14.679688 29.332031 L 17.320312 29.332031 C 18.0625 29.332031 18.667969 28.730469 18.667969 27.988281 L 18.667969 25.894531 C 18.679688 25.328125 19.035156 24.824219 19.566406 24.625 L 19.582031 24.617188 C 20.097656 24.386719 20.703125 24.492188 21.109375 24.886719 L 22.589844 26.367188 C 23.117188 26.890625 23.96875 26.890625 24.496094 26.367188 L 26.363281 24.5 C 26.886719 23.972656 26.886719 23.121094 26.363281 22.59375 L 24.882812 21.113281 C 24.488281 20.707031 24.382812 20.101562 24.613281 19.585938 L 24.621094 19.570312 C 24.820312 19.035156 25.324219 18.675781 25.894531 18.667969 L 27.988281 18.667969 C 28.730469 18.667969 29.332031 18.0625 29.332031 17.320312 L 29.332031 14.679688 C 29.332031 13.9375 28.730469 13.332031 27.988281 13.332031 Z M 16 20 C 13.789062 20 12 18.210938 12 16 C 12 13.789062 13.789062 12 16 12 C 18.210938 12 20 13.789062 20 16 C 20 18.210938 18.210938 20 16 20 Z M 16 20 "/>
</g>
</svg>
